<svg xmlns="http://www.w3.org/2000/svg" viewBox="0 0 1000 1200">
  <defs><linearGradient id="a" x1="0" x2="0" y1="0" y2="1"><stop stop-color="#7dd3fc"/><stop offset=".5" stop-color="#38bdf8"/><stop offset="1" stop-color="#0891b2"/></linearGradient><linearGradient id="b" x1="0" x2="1"><stop stop-color="#facc15"/><stop offset="1" stop-color="#f97316"/></linearGradient></defs>
  <rect width="1000" height="1200" fill="url(#a)"/><path d="M0 440c120-150 230-170 315-70 70 82 135 72 205-25 95-132 230-110 330 45 45 70 95 95 150 80v730H0z" fill="#166534" opacity=".46"/><path d="M0 645c150-95 270-70 380-30 190 68 350 12 620-60v645H0z" fill="#06b6d4"/>
  <g transform="translate(175 535)"><path d="M130 470c120-160 405-175 550-20-105 85-420 92-550 20z" fill="url(#b)"/><path d="M245 438c95-38 235-35 325 8-90 30-235 35-325-8z" fill="#78350f" opacity=".28"/><circle cx="410" cy="205" r="48" fill="#f5c99b"/><path d="M360 255c55-55 120-55 175 0l55 170H305z" fill="#0f172a"/><path d="M420 245l-55 155M432 245l60 155" stroke="#f8fafc" stroke-width="18" stroke-linecap="round"/><path d="M190 210l465 260" stroke="#78350f" stroke-width="18" stroke-linecap="round"/><path d="M120 168l140 80M595 430l145 80" stroke="#facc15" stroke-width="34" stroke-linecap="round"/></g>
  <path d="M80 760c95-35 190-35 285 0M520 875c105-36 210-36 315 0" fill="none" stroke="#ecfeff" stroke-width="8" stroke-linecap="round" opacity=".45"/>
</svg>
