<svg xmlns="http://www.w3.org/2000/svg" viewBox="0 0 1000 1200"><rect width="1000" height="1200" fill="#dcfce7"/><circle cx="790" cy="210" r="90" fill="#fff7ed" opacity=".8"/><path d="M0 650c150-120 300-100 440-38 150 68 300 48 560-40v628H0z" fill="#22c55e" opacity=".35"/><rect y="805" width="1000" height="395" fill="#334155"/><path d="M0 960h1000" stroke="#f8fafc" stroke-width="16" stroke-dasharray="80 60"/><g transform="translate(135 535)"><path d="M120 260l80-140c35-60 75-80 145-80h190c70 0 112 25 150 88l80 132c60 18 95 60 95 125v70H45v-70c0-68 28-108 75-125z" fill="#f97316"/><path d="M235 120h380l72 130H165z" fill="#fff" opacity=".88"/><path d="M285 145h110v95H230zM435 145h130l70 95H435z" fill="#0f172a" opacity=".72"/><circle cx="190" cy="470" r="70" fill="#111827"/><circle cx="710" cy="470" r="70" fill="#111827"/><circle cx="190" cy="470" r="32" fill="#cbd5e1"/><circle cx="710" cy="470" r="32" fill="#cbd5e1"/></g></svg>
