<svg xmlns="http://www.w3.org/2000/svg" viewBox="0 0 1000 1200"><rect width="1000" height="1200" fill="#bfdbfe"/><rect y="530" width="1000" height="670" fill="#0284c7"/><path d="M0 780c170-60 320-35 500-70 170-32 330-30 500 30v460H0z" fill="#38bdf8" opacity=".38"/><g transform="translate(120 420)"><path d="M50 440h700c55 0 105-48 130-125H0c8 58 22 97 50 125z" fill="#f8fafc"/><rect x="110" y="205" width="550" height="150" rx="18" fill="#fff"/><rect x="215" y="85" width="340" height="145" rx="16" fill="#e2e8f0"/><rect x="590" y="115" width="70" height="110" rx="8" fill="#ef4444"/><g fill="#0f172a" opacity=".7"><rect x="155" y="245" width="70" height="50" rx="8"/><rect x="265" y="245" width="70" height="50" rx="8"/><rect x="375" y="245" width="70" height="50" rx="8"/><rect x="485" y="245" width="70" height="50" rx="8"/></g><path d="M115 360h620" stroke="#1d4ed8" stroke-width="24"/></g></svg>
