<svg xmlns="http://www.w3.org/2000/svg" viewBox="0 0 1000 1200"><defs><linearGradient id="a" x1="0" x2="0" y1="0" y2="1"><stop stop-color="#fef3c7"/><stop offset="1" stop-color="#d97706"/></linearGradient></defs><rect width="1000" height="1200" fill="url(#a)"/><circle cx="780" cy="220" r="95" fill="#fff7ed" opacity=".65"/><path d="M0 830c180-80 330-50 500-95 170-44 330-35 500 35v430H0z" fill="#92400e" opacity=".35"/><g transform="translate(230 350)"><rect x="120" y="260" width="300" height="300" fill="#0f172a"/><path d="M105 260h330l-45-80H150z" fill="#111827"/><path d="M185 95c0-70 170-70 170 0v120H185z" fill="#f8fafc"/><circle cx="270" cy="95" r="86" fill="#f8fafc"/><rect x="230" y="360" width="80" height="200" fill="#fbbf24"/><path d="M500 560V285c0-80 90-80 90 0v275" stroke="#f8fafc" stroke-width="44" stroke-linecap="round"/><circle cx="545" cy="250" r="58" fill="#f8fafc"/></g></svg>
