<svg xmlns="http://www.w3.org/2000/svg" viewBox="0 0 1000 1200"><rect width="1000" height="1200" fill="#bae6fd"/><rect y="570" width="1000" height="630" fill="#0284c7"/><path d="M0 760c170-60 320-35 500-70 170-32 330-30 500 30v480H0z" fill="#38bdf8" opacity=".35"/><g transform="translate(125 385)"><path d="M55 455h650c55 0 110-55 130-125H10c8 55 20 92 45 125z" fill="#f8fafc"/><rect x="115" y="175" width="530" height="185" rx="18" fill="#fff"/><rect x="205" y="65" width="350" height="135" rx="16" fill="#e2e8f0"/><g fill="#0f172a" opacity=".72"><rect x="160" y="220" width="56" height="48" rx="8"/><rect x="260" y="220" width="56" height="48" rx="8"/><rect x="360" y="220" width="56" height="48" rx="8"/><rect x="460" y="220" width="56" height="48" rx="8"/><rect x="560" y="220" width="56" height="48" rx="8"/></g><rect x="620" y="95" width="60" height="110" rx="8" fill="#ef4444"/></g></svg>
