<svg xmlns="http://www.w3.org/2000/svg" viewBox="0 0 1000 1200">
  <defs><linearGradient id="a" x1="0" x2="0" y1="0" y2="1"><stop stop-color="#7dd3fc"/><stop offset=".55" stop-color="#fde68a"/><stop offset="1" stop-color="#0e7490"/></linearGradient></defs>
  <rect width="1000" height="1200" fill="url(#a)"/><circle cx="810" cy="220" r="95" fill="#fff7ed" opacity=".75"/><rect y="805" width="1000" height="395" fill="#0891b2"/>
  <g transform="translate(160 290)"><rect x="40" y="310" width="600" height="300" rx="20" fill="#f8fafc"/><rect x="115" y="180" width="450" height="430" rx="20" fill="#fff"/><rect x="195" y="45" width="290" height="565" rx="18" fill="#f1f5f9"/><path d="M180 50h320l-45-60H225zM100 185h480l-60-75H160zM30 315h620l-70-80H100z" fill="#92400e"/><g fill="#0f172a" opacity=".75"><rect x="235" y="95" width="70" height="85" rx="8"/><rect x="375" y="95" width="70" height="85" rx="8"/><rect x="155" y="245" width="70" height="85" rx="8"/><rect x="305" y="245" width="70" height="85" rx="8"/><rect x="455" y="245" width="70" height="85" rx="8"/></g><rect x="285" y="470" width="115" height="140" rx="12" fill="#7c2d12"/></g>
  <path d="M0 960c170-60 330-35 520-70 170-30 310-35 480 35v275H0z" fill="#67e8f9" opacity=".35"/>
</svg>
