<svg xmlns="http://www.w3.org/2000/svg" viewBox="0 0 1000 1200"><rect width="1000" height="1200" fill="#e0f2fe"/><circle cx="800" cy="200" r="88" fill="#fff7ed" opacity=".8"/><path d="M0 670c150-115 300-95 440-35 150 64 300 45 560-38v603H0z" fill="#94a3b8" opacity=".35"/><rect y="830" width="1000" height="370" fill="#475569"/><path d="M0 1015h1000" stroke="#f8fafc" stroke-width="14" stroke-dasharray="70 55"/><g transform="translate(130 535)"><rect x="65" y="135" width="690" height="300" rx="55" fill="#0ea5e9"/><path d="M150 90h360c80 0 150 60 190 160H80c20-95 45-160 70-160z" fill="#38bdf8"/><path d="M180 125h160v110H125zM375 125h155l90 110H375z" fill="#0f172a" opacity=".72"/><rect x="610" y="275" width="105" height="70" rx="18" fill="#f8fafc"/><circle cx="205" cy="445" r="68" fill="#111827"/><circle cx="620" cy="445" r="68" fill="#111827"/><circle cx="205" cy="445" r="30" fill="#cbd5e1"/><circle cx="620" cy="445" r="30" fill="#cbd5e1"/></g><path d="M465 385l75-75 75 75M540 310v160" fill="none" stroke="#0284c7" stroke-width="34" stroke-linecap="round" stroke-linejoin="round"/></svg>
