<svg xmlns="http://www.w3.org/2000/svg" viewBox="0 0 1000 1200"><defs><linearGradient id="a" x1="0" x2="0" y1="0" y2="1"><stop stop-color="#93c5fd"/><stop offset="1" stop-color="#fef3c7"/></linearGradient></defs><rect width="1000" height="1200" fill="url(#a)"/><circle cx="790" cy="230" r="90" fill="#fff7ed" opacity=".85"/><path d="M0 760c160-55 320-40 480-85 180-50 340-45 520 20v505H0z" fill="#bfdbfe" opacity=".5"/><g transform="translate(120 420) rotate(-10 380 220)"><path d="M50 260l660-190c60-18 112 48 68 95L565 390l-35 230-95 28-25-205-210 60-85 130-80 22 45-155-95-118 80-24 135 75 168-110z" fill="#f8fafc"/><path d="M210 420l210-60 35 58-220 62z" fill="#1d4ed8" opacity=".8"/><circle cx="650" cy="122" r="22" fill="#0f172a" opacity=".45"/></g></svg>
