<?xml version="1.0" encoding="UTF-8"?>
<svg fill="#000000" width="800px" height="800px" version="1.1" viewBox="254 268 298 260" xmlns="http://www.w3.org/2000/svg">
 <g>
  <path d="m492.62 316.14h-229.06c-18.812 0-34.102 15.289-34.102 34.07v141.08c0 18.781 15.289 34.07 34.102 34.07h229.06c18.781 0 34.07-15.289 34.07-34.07v-141.08c0-18.781-15.289-34.07-34.07-34.07zm-22.137 192.46h-184.82c0-22.137-17.523-40.039-39.453-40.902v-93.945c21.93-0.83594 39.453-18.719 39.453-40.871h184.8c0 22.137 17.523 40.039 39.453 40.871v93.945c-21.914 0.86328-39.438 18.766-39.438 40.902z"/>
  <path d="m544.83 274.63h-239.62c-13.902 0-25.129 11.004-25.617 24.75h213.03c28.008 0 50.836 22.812 50.836 50.836v127.46h1.3867c14.168 0 25.711-11.492 25.711-25.711l0.003907-151.66c-0.015626-14.172-11.543-25.68-25.727-25.68z"/>
  <path d="m378.04 349.22c-39.516 0-71.492 32.039-71.492 71.523s31.977 71.492 71.492 71.492 71.523-32.008 71.523-71.492c0.003906-39.484-32.004-71.523-71.523-71.523zm26.355 92.719c-1.7461 5.2891-5.6211 9.4453-11.133 11.996-2.8672 1.3242-6.1562 2-9.5898 2.3945v8.707c0 3.1016-2.5195 5.5898-5.5898 5.5898-3.1016 0-5.5898-2.4883-5.5898-5.5898v-9.0352c-4.5508-0.64453-9.1953-1.7148-13.965-3.6211-2.8672-1.1641-4.25-4.4258-3.0703-7.2891 1.1797-2.8672 4.3945-4.2188 7.2578-3.0703 9.8086 3.9688 19.711 4.6445 25.867 1.7773 2.707-1.2266 4.457-3.0391 5.2266-5.3828 1.4492-4.3281-1.7148-7.7461-11.652-12.547l-1.1328-0.55078c-0.80469-0.39453-1.9688-0.86719-3.2891-1.418-7.8086-3.1016-26.07-10.359-21.254-25.68 1.5117-4.8008 4.6758-8.5508 9.1328-10.801 2.1562-1.0703 4.4883-1.6836 6.8945-2.0938v-8.8789c0-3.0703 2.4883-5.5742 5.5898-5.5742 3.0703 0 5.5898 2.4883 5.5898 5.5742v8.6758c6.4219 0.70703 11.715 2.4258 12.707 2.7695 2.9297 1.0078 4.457 4.1875 3.4805 7.1016-1.0078 2.9297-4.1875 4.457-7.1016 3.4805-3.7461-1.2891-15.871-4.25-22.137-1.0703-1.7773 0.92969-2.8984 2.25-3.4805 4.1875-1.4492 4.4883 4.832 8.0312 14.703 11.965 1.6523 0.67578 3.1016 1.2266 4.125 1.7148l1.0703 0.55078c6.082 2.9258 22.395 10.828 17.34 26.117z"/>
 </g>
</svg>
